<?xml version="1.0"?>
<svg xmlns="http://www.w3.org/2000/svg" xmlns:xlink="http://www.w3.org/1999/xlink" xmlns:svgjs="http://svgjs.com/svgjs" version="1.1" width="512" height="512" x="0" y="0" viewBox="0 0 479.99 479.99" style="enable-background:new 0 0 512 512" xml:space="preserve" class=""><g>
<g xmlns="http://www.w3.org/2000/svg">
	<g>
		<path d="M479.9,233.382c-1.2-44.8-15-88.3-39.7-125.7c0-0.1-0.1-0.2-0.2-0.3l-2.4-3.3c-75-109.2-224.4-136.9-333.6-61.9    c-40.1,27.6-70.9,66.7-88.2,112.2c-9.1,23.9-14.4,49.1-15.5,74.6c-0.2,3.6-0.3,7.3-0.3,11c0.1,132.5,107.5,239.9,240,240    c1.6,0,3.3-0.1,4.9-0.1l1.7-0.1C379.1,476.182,483.5,365.782,479.9,233.382z M240,15.982c70.3-0.1,136.4,32.9,178.7,89    c-21.8,2-43.3,7-63.8,14.8c-30.9-63.5-107.5-89.8-171-58.8c-25.8,12.6-46.6,33.5-59.1,59.3l-2.9,0.2c-1.5,0.1-3,0.2-4.4,0.4    c-3.2,0.2-6.4,0.5-9.6,0.9c-1.7,0.2-3.4,0.4-5.1,0.7c-3.1,0.4-6.1,0.9-9.2,1.5c-1.6,0.3-3.2,0.6-4.9,0.9    c-3.5,0.7-6.9,1.5-10.3,2.3c-1.1,0.3-2.2,0.5-3.3,0.8c-4.5,1.2-8.9,2.5-13.3,3.9c-1.2,0.4-2.5,0.9-3.7,1.3    c-3.2,1.1-6.3,2.2-9.5,3.4c-1.6,0.6-3.2,1.3-4.8,2c-1.6,0.7-3,1.2-4.5,1.8C77.6,64.382,155.1,16.382,240,15.982z M232,103.982v36    c-0.4-0.2-0.9-0.3-1.4-0.5c-3.3-1.4-6.6-2.6-9.9-3.9c-2.7-1-5.4-2.1-8.1-3c-3.5-1.2-7-2.1-10.5-3.1c-2.7-0.8-5.3-1.6-8-2.3    c-3.7-0.9-7.5-1.6-11.3-2.4c-2.6-0.5-5.1-1.1-7.7-1.5c-4.3-0.7-8.6-1.1-12.9-1.6c-2.2-0.2-4.3-0.6-6.5-0.8    c-4.2-0.3-8.5-0.4-12.8-0.5c30.7-53.8,99.1-72.4,152.8-41.6c19.2,11,34.6,27.4,44.5,47.1c-22.6,10.3-43.5,24.1-61.9,40.9    c-1.9-1.4-3.9-2.6-5.9-4c-2.5-1.7-5-3.5-7.5-5.1c-3-1.9-6-3.7-9.1-5.4c-2.6-1.5-5.2-3-7.8-4.4h-0.1v-43.9H232z M348.5,430.882    l-1.7,2.4l-5.3-0.2c-32.9-1-65.3-7.9-95.8-20.4l1.3-0.7l-1.2-2.1c-20.2-36.6-10.4-82.4,23-107.6l-9.6-12.8    c-35,26.5-48.7,72.7-33.7,114c-38.2-19.2-71.5-46.8-97.5-80.7v-15.1c-0.1-41.4,16.3-81.1,45.7-110.2l-11.3-11.3    c-30.4,30.3-48.3,71.1-50,114c-22.1-35.5-36-75.6-40.4-117.2l-16,1.8c15.5,140,127.3,249.9,267.5,263.2    c-24.7,9.8-50.9,15.1-77.4,15.8l-1.8,0.1c-1.4,0-2.9,0.1-4.4,0.1c-123.5-0.2-223.7-100.4-223.9-224c0-6.4,0.3-12.8,0.8-19.1    c0-0.3,0-0.6,0.1-0.9c0.5-6.1,1.4-12.2,2.4-18.2c0.1-0.5,0.2-1,0.2-1.5c1.1-5.9,2.4-11.7,3.9-17.4c0.2-0.6,0.3-1.3,0.5-1.9    c1.6-5.7,3.4-11.3,5.4-16.8c0.2-0.4,0.3-0.8,0.4-1.2c1.9-1,3.8-2,5.7-2.9c1.9-0.9,3.6-1.8,5.4-2.7c2.4-1.2,5-2.2,7.4-3.3    c1.8-0.8,3.6-1.6,5.4-2.3c2.6-1,5.1-1.9,7.7-2.8c1.8-0.6,3.6-1.3,5.5-1.9c2.6-0.9,5.3-1.6,8-2.3c1.8-0.5,3.6-1.1,5.5-1.6    c2.7-0.7,5.5-1.3,8.3-1.9c1.8-0.4,3.6-0.8,5.4-1.2c2.9-0.5,5.8-1,8.6-1.4c1.7-0.3,3.5-0.6,5.2-0.8c3.1-0.4,6.3-0.6,9.4-0.9    c1.5-0.1,3-0.3,4.6-0.4c4.7-0.3,9.4-0.4,14.1-0.4c123.8,0.1,224.1,100.5,224,224.3C360,384.282,356.1,408.082,348.5,430.882z     M376.8,417.882l18.1-26.4c43.4-63.6,49.6-145.5,16.3-214.9l-14.4,6.9c30.8,64.3,25.1,140.1-15.1,198.9l-8.2,12    c1.6-11.4,2.5-22.9,2.5-34.4c0.2-70.6-31-137.6-85-183.1c38.2-34.2,87.1-54.1,138.3-56.5    C491.1,218.182,468.4,347.082,376.8,417.882z" fill="#ffffff" data-original="#000000" style="" class=""/>
	</g>
</g>
<g xmlns="http://www.w3.org/2000/svg">
</g>
<g xmlns="http://www.w3.org/2000/svg">
</g>
<g xmlns="http://www.w3.org/2000/svg">
</g>
<g xmlns="http://www.w3.org/2000/svg">
</g>
<g xmlns="http://www.w3.org/2000/svg">
</g>
<g xmlns="http://www.w3.org/2000/svg">
</g>
<g xmlns="http://www.w3.org/2000/svg">
</g>
<g xmlns="http://www.w3.org/2000/svg">
</g>
<g xmlns="http://www.w3.org/2000/svg">
</g>
<g xmlns="http://www.w3.org/2000/svg">
</g>
<g xmlns="http://www.w3.org/2000/svg">
</g>
<g xmlns="http://www.w3.org/2000/svg">
</g>
<g xmlns="http://www.w3.org/2000/svg">
</g>
<g xmlns="http://www.w3.org/2000/svg">
</g>
<g xmlns="http://www.w3.org/2000/svg">
</g>
</g></svg>
